<svg width="16" height="16" viewBox="0 0 16 16" fill="none" xmlns="http://www.w3.org/2000/svg">
<path d="M9.9999 16L5.9999 13V9.58667L0.666565 3.58667V2C0.666565 1.46957 0.877279 0.960859 1.25235 0.585786C1.62742 0.210714 2.13613 0 2.66657 0L13.3332 0C13.8637 0 14.3724 0.210714 14.7474 0.585786C15.1225 0.960859 15.3332 1.46957 15.3332 2V3.58667L9.9999 9.58667V16ZM7.33323 12.3333L8.66657 13.3333V9.08L13.9999 3.08V2C13.9999 1.82319 13.9297 1.65362 13.8046 1.5286C13.6796 1.40357 13.51 1.33333 13.3332 1.33333H2.66657C2.48975 1.33333 2.32018 1.40357 2.19516 1.5286C2.07014 1.65362 1.9999 1.82319 1.9999 2V3.08L7.33323 9.08V12.3333Z" fill="white"/>
</svg>
