<svg width="18" height="24" viewBox="0 0 18 24" fill="none" xmlns="http://www.w3.org/2000/svg">
<path d="M18 24.0002H16V18.9572C15.9992 18.1732 15.6874 17.4216 15.133 16.8672C14.5787 16.3128 13.827 16.001 13.043 16.0002H4.95699C4.17299 16.001 3.42133 16.3128 2.86695 16.8672C2.31258 17.4216 2.00079 18.1732 1.99999 18.9572V24.0002H-7.62939e-06V18.9572C0.0015802 17.6431 0.524344 16.3831 1.45362 15.4539C2.38289 14.5246 3.6428 14.0018 4.95699 14.0002H13.043C14.3572 14.0018 15.6171 14.5246 16.5464 15.4539C17.4756 16.3831 17.9984 17.6431 18 18.9572V24.0002Z" fill="#677080"/>
<path d="M8.99999 12C7.8133 12 6.65326 11.6481 5.66657 10.9888C4.67987 10.3295 3.91084 9.39246 3.45671 8.2961C3.00259 7.19975 2.88377 5.99335 3.11528 4.82946C3.34679 3.66558 3.91824 2.59648 4.75735 1.75736C5.59647 0.918247 6.66556 0.346802 7.82945 0.115291C8.99334 -0.11622 10.1997 0.00259972 11.2961 0.456726C12.3924 0.910851 13.3295 1.67989 13.9888 2.66658C14.6481 3.65328 15 4.81331 15 6C14.9984 7.59081 14.3658 9.11602 13.2409 10.2409C12.116 11.3658 10.5908 11.9984 8.99999 12ZM8.99999 2C8.20887 2 7.43551 2.2346 6.77771 2.67412C6.11991 3.11365 5.60722 3.73836 5.30447 4.46927C5.00172 5.20017 4.92251 6.00444 5.07685 6.78036C5.23119 7.55629 5.61215 8.26902 6.17156 8.82843C6.73097 9.38784 7.44371 9.7688 8.21963 9.92314C8.99555 10.0775 9.79982 9.99827 10.5307 9.69552C11.2616 9.39277 11.8863 8.88008 12.3259 8.22228C12.7654 7.56449 13 6.79113 13 6C13 4.93914 12.5786 3.92172 11.8284 3.17158C11.0783 2.42143 10.0609 2 8.99999 2Z" fill="#677080"/>
</svg>
